Coordinates
version=1
nRows=6
nColumns=63
inDegrees=yes

Units are S.I. units (second, meters, Newtons, ...)
If the header above contains a line with 'inDegrees', this indicates whether rotational values are in degrees (yes) or radians (no).

endheader
time	pelvis_tilt	pelvis_list	pelvis_rotation	pelvis_tx	pelvis_ty	pelvis_tz	hip_flexion_r	hip_adduction_r	hip_rotation_r	knee_angle_r	knee_angle_r_beta	ankle_angle_r	subtalar_angle_r	mtp_angle_r	hip_flexion_l	hip_adduction_l	hip_rotation_l	knee_angle_l	knee_angle_l_beta	ankle_angle_l	subtalar_angle_l	mtp_angle_l	L5_S1_Flex_Ext	L5_S1_Lat_Bending	L5_S1_axial_rotation	L4_L5_Flex_Ext	L4_L5_Lat_Bending	L4_L5_axial_rotation	L3_L4_Flex_Ext	L3_L4_Lat_Bending	L3_L4_axial_rotation	L2_L3_Flex_Ext	L2_L3_Lat_Bending	L2_L3_axial_rotation	L1_L2_Flex_Ext	L1_L2_Lat_Bending	L1_L2_axial_rotation	L1_T12_Flex_Ext	L1_T12_Lat_Bending	L1_T12_axial_rotation	Abs_r3	Abs_r2	Abs_r1	Abs_t1	Abs_t2	neck_flexion	neck_bending	neck_rotation	arm_flex_r	arm_add_r	arm_rot_r	elbow_flex_r	pro_sup_r	wrist_flex_r	wrist_dev_r	arm_flex_l	arm_add_l	arm_rot_l	elbow_flex_l	pro_sup_l	wrist_flex_l	wrist_dev_l
0.000000	0.043347	-4.284415	85.381082	0.162951	0.733545	0.710013	-2.351755	-2.044225	11.531151	4.720999	0.082397	29.618023	0.881996	0.000000	-1.322014	0.565442	-7.370284	4.645854	0.081085	31.462177	5.257518	0.000000	0.154488	-0.074259	0.452217	0.286899	-0.098764	0.480480	0.253808	-0.180553	0.480480	0.176564	-0.180553	0.395690	0.143457	-0.151428	0.367426	0.088274	-0.115027	0.339162	1.103489	-0.840029	2.515093	0.000000	0.000000	14.387418	0.181944	10.265270	15.245354	-8.390899	78.169403	52.208261	37.227407	-16.500327	3.461636	16.438449	-13.732001	70.853069	53.726754	78.014431	-2.976764	19.909532
0.024390	0.117828	-4.174132	86.080905	0.162995	0.733439	0.708009	-2.846528	-1.963233	9.601165	4.463961	0.077911	30.410591	2.328279	0.000000	-1.612911	0.450347	-5.761147	4.339037	0.075730	31.698287	4.484064	0.000000	0.161477	-0.090918	0.416806	0.299879	-0.120921	0.442857	0.265291	-0.221058	0.442857	0.184552	-0.221058	0.364706	0.149948	-0.185400	0.338655	0.092268	-0.140832	0.312605	1.153415	-1.028484	2.318152	0.000000	0.000000	14.339042	0.314002	9.115007	15.496630	-8.513079	78.915719	52.414013	35.451314	-16.335481	2.733952	16.253061	-13.887131	70.758035	53.991558	76.646459	-2.991986	19.890162
0.048780	0.147591	-4.084519	86.579956	0.163151	0.733314	0.706372	-3.231387	-1.935119	8.060814	4.278266	0.074670	31.088011	3.541913	0.000000	-1.861106	0.392042	-4.465899	4.074997	0.071122	31.882162	3.788025	0.000000	0.167478	-0.108532	0.391567	0.311024	-0.144347	0.416040	0.275150	-0.263884	0.416040	0.191411	-0.263884	0.342621	0.155521	-0.221318	0.318148	0.095697	-0.168116	0.293675	1.196282	-1.227734	2.177778	0.000000	0.000000	14.321817	0.447991	8.199002	15.723285	-8.578248	79.588937	52.562492	33.760678	-16.239424	2.269058	16.058549	-14.019369	70.655908	54.194415	75.579909	-3.009616	19.919618
0.073171	0.137516	-4.014267	86.897987	0.163404	0.733176	0.705075	-3.515341	-1.953995	6.876082	4.157480	0.072562	31.657717	4.539989	0.000000	-2.068922	0.384384	-3.457114	3.851089	0.067214	32.017398	3.166019	0.000000	0.172564	-0.126866	0.375700	0.320469	-0.168731	0.399181	0.283506	-0.308461	0.399181	0.197224	-0.308461	0.328737	0.160243	-0.258705	0.305256	0.098603	-0.196515	0.281775	1.232610	-1.435131	2.089529	0.000000	0.000000	14.332442	0.582428	7.495603	15.925158	-8.592776	80.186776	52.659021	32.175332	-16.201702	2.042240	15.858149	-14.130409	70.547614	54.341226	74.783367	-3.029680	19.991843
0.097561	0.092480	-3.962068	87.054745	0.163737	0.733029	0.704090	-3.707399	-2.013972	6.012957	4.095170	0.071474	32.127141	5.339598	0.000000	-2.238681	0.421224	-2.707364	3.664663	0.063960	32.107594	2.614660	0.000000	0.176808	-0.145686	0.368406	0.328349	-0.193762	0.391432	0.290477	-0.354220	0.391432	0.202073	-0.354220	0.322355	0.164184	-0.297082	0.299330	0.101028	-0.225667	0.276305	1.262919	-1.648025	2.048964	0.000000	0.000000	14.367613	0.715828	6.983158	16.102091	-8.563030	80.706957	52.708918	30.715107	-16.211864	2.028783	15.655095	-14.221944	70.434079	54.437892	74.225423	-3.052200	20.100774
0.121951	0.017362	-3.926614	87.069982	0.164136	0.732877	0.703390	-3.816572	-2.109164	5.437426	4.084903	0.071295	32.503714	5.957831	0.000000	-2.372707	0.496417	-2.189223	3.513072	0.061315	32.156345	2.130564	0.000000	0.180281	-0.164757	0.368888	0.334800	-0.219127	0.391943	0.296184	-0.400591	0.391943	0.206043	-0.400591	0.322777	0.167409	-0.335973	0.299721	0.103013	-0.255209	0.276666	1.287729	-1.863769	2.051644	0.000000	0.000000	14.424030	0.846706	6.640016	16.253924	-8.495379	81.147198	52.717507	29.399836	-16.259456	2.203974	15.452622	-14.295669	70.316232	54.490311	73.874665	-3.077203	20.240353
